<svg width="13" height="14" viewBox="0 0 13 14" fill="none" xmlns="http://www.w3.org/2000/svg">
<g clip-path="url(#clip0)">
<path d="M6.12429 14C7.09007 14 7.87347 13.2166 7.87347 12.25H4.37511C4.37511 13.2166 5.1585 14 6.12429 14ZM12.0139 9.90637C11.4856 9.33871 10.4971 8.48477 10.4971 5.6875C10.4971 3.56289 9.00741 1.86211 6.99874 1.44484V0.875C6.99874 0.391836 6.60718 0 6.12429 0C5.6414 0 5.24983 0.391836 5.24983 0.875V1.44484C3.24116 1.86211 1.75147 3.56289 1.75147 5.6875C1.75147 8.48477 0.762997 9.33871 0.234716 9.90637C0.0706537 10.0827 -0.0020807 10.2936 -0.000713517 10.5C0.0022943 10.9484 0.354208 11.375 0.877021 11.375H11.3716C11.8944 11.375 12.2466 10.9484 12.2493 10.5C12.2507 10.2936 12.1779 10.0825 12.0139 9.90637Z" fill="#777777"/>
</g>
<defs>
<clipPath id="clip0">
<rect width="12.25" height="14" fill="white"/>
</clipPath>
</defs>
</svg>
