<svg width="46" height="46" viewBox="0 0 46 46" fill="none" xmlns="http://www.w3.org/2000/svg">
<rect width="46" height="46" rx="10" fill="#87EC9D"/>
<g clip-path="url(#clip0)">
<path d="M23 21.125V37.0625L37.0625 31.4375V15.5L23 21.125Z" fill="#E1C3A7"/>
<path d="M23 21.125V37.0625L8.9375 31.4375V15.5L23 21.125Z" fill="#F3D4B7"/>
<path d="M37.0625 15.5L30.1865 18.2504L23 21.125L8.9375 15.5L23 8.9375L37.0625 15.5Z" fill="#F3D4B7"/>
<path d="M37.9942 15.3988C37.9592 15.0761 37.7587 14.7905 37.4589 14.6507L23.3964 8.08818C23.1451 7.97093 22.8549 7.97093 22.6036 8.08818L8.54105 14.6507C8.24141 14.7905 8.0409 15.0761 8.0058 15.3988C8.0051 15.4055 8 15.4953 8 15.5002V31.4377C8 31.821 8.23338 32.1658 8.58934 32.3081L22.6518 37.9331C22.7636 37.9778 22.8818 38.0002 23 38.0002C23.1182 38.0002 23.2364 37.9779 23.3482 37.9331L37.4107 32.3081C37.7666 32.1658 38 31.821 38 31.4377V15.5002C38 15.4953 37.9949 15.4055 37.9942 15.3988ZM23 9.97226L34.7037 15.434L30.1971 17.2367L18.2731 12.1782L23 9.97226ZM15.9869 13.2451L27.7259 18.2251L23 20.1155L11.2963 15.434L15.9869 13.2451ZM9.875 16.8849L22.0625 21.7599V35.678L9.875 30.803V16.8849ZM23.9375 35.678V21.7599L36.125 16.8849V30.803L23.9375 35.678Z" fill="black"/>
</g>
<defs>
<clipPath id="clip0">
<rect width="30" height="30" fill="white" transform="translate(8 8)"/>
</clipPath>
</defs>
</svg>
