<svg id="Capa_1" enable-background="new 0 0 512 512" height="512" viewBox="0 0 512 512" width="512" xmlns="http://www.w3.org/2000/svg"><g><g><path clip-rule="evenodd" d="m137.83 113.663h75.384 11.554c4.758 0 8.665-3.871 8.665-8.646v-15.004-55.579-15.004c0-4.747-3.908-8.646-8.665-8.646h-98.492c-4.758 0-8.665 3.899-8.665 8.646v15.004 55.579 15.004c0 4.775 3.908 8.646 8.665 8.646z" fill="#ffcd69" fill-rule="evenodd"/></g><g><path clip-rule="evenodd" d="m274.127 90.013h107.129 56.977 18.294c8.382 0 10.45-1.017 15.009-7.092l27.979-37.269c1.161-1.554 1.897-2.939 2.237-4.182v-3.108c-.906-2.599-4.361-3.927-9.062-3.927h-259.257v55.579h40.694z" fill="#ffe6b4" fill-rule="evenodd"/></g><g><path clip-rule="evenodd" d="m15.154 113.663h43.78c2.832 0 5.154-2.317 5.154-5.142v-18.508-55.579-18.507c0-2.826-2.322-5.142-5.154-5.142h-43.78c-2.294 0-4.248 1.498-4.927 3.588v95.702c.679 2.09 2.633 3.588 4.927 3.588z" fill="#ffcd69" fill-rule="evenodd"/></g><g><path clip-rule="evenodd" d="m64.088 34.434h53.522v55.579h-53.522z" fill="#ffe6b4" fill-rule="evenodd"/></g><g><path clip-rule="evenodd" d="m274.127 119.625c0 9.861 8.099 17.942 17.982 17.942h71.164c9.911 0 17.982-8.081 17.982-17.942v-29.612h-107.128z" fill="#ffcd69" fill-rule="evenodd"/></g><g><path clip-rule="evenodd" d="m421.44 290.74h16.793 4.984 11.808l12.177-68.52h-23.985-4.984-28.97z" fill="#9ea6bf" fill-rule="evenodd"/></g><g><path clip-rule="evenodd" d="m88.046 459.708h193.472v-14.043c0-19.129-15.688-34.783-34.86-34.783h-33.444-75.384-43.78c-3.313 0-6.004 2.684-6.004 5.962z" fill="#ffe6b4" fill-rule="evenodd"/></g><g><path clip-rule="evenodd" d="m74.736 501.216h240.906.085c5.097-.056 9.26-4.238 9.26-9.353v-22.83c0-5.143-4.191-9.324-9.345-9.324h-34.124-193.472-13.31c-5.154 0-9.373 4.182-9.373 9.324v22.83c0 5.114 4.191 9.296 9.288 9.353z" fill="#ffcd69" fill-rule="evenodd"/></g><g><path d="m510.512 33.439c-1.678-3.363-6.225-9.005-17.823-9.005h-84.814c-5.523 0-10 4.477-10 10s4.477 10 10 10h80.048l-24.386 32.484c-1.687 2.247-2.282 2.732-2.336 2.782-.249.094-1.202.313-4.675.313h-213.093v-35.579h74.729c5.523 0 10-4.477 10-10s-4.477-10-10-10h-74.729v-5.004c0-10.281-8.374-18.646-18.665-18.646h-98.492c-10.292 0-18.665 8.365-18.665 18.646v5.004h-33.523v-8.507c0-8.35-6.798-15.143-15.154-15.143h-43.78c-8.356 0-15.154 6.793-15.154 15.143v92.594c0 8.35 6.798 15.142 15.154 15.142h43.781c8.356 0 15.154-6.792 15.154-15.142v-8.508h33.522v5.004c0 10.281 8.374 18.646 18.665 18.646h1.554v277.221h-33.781c-8.824 0-16.003 7.161-16.003 15.962v32.864h-3.31c-10.683 0-19.374 8.669-19.374 19.324v22.831c0 10.671 8.691 19.352 19.374 19.352h240.905c10.667 0 19.345-8.682 19.345-19.352v-22.831c0-10.655-8.678-19.324-19.345-19.324h-24.124v-4.043c0-24.693-20.124-44.783-44.86-44.783h-23.444v-277.222h1.554c10.292 0 18.665-8.365 18.665-18.646v-5.004h20.694v19.612c0 15.407 12.553 27.942 27.982 27.942h71.164c15.43 0 27.982-12.535 27.982-27.942v-19.612h36.977v112.208h-18.97c-2.958 0-5.765 1.31-7.665 3.577-1.9 2.268-2.699 5.26-2.181 8.172l12.177 68.52c.848 4.773 4.998 8.25 9.846 8.25h6.793v28.54c0 5.523 4.477 10 10 10 11.428 0 20.726 9.267 20.726 20.658s-9.297 20.657-20.726 20.657c-11.428 0-20.726-9.267-20.726-20.657 0-5.523-4.477-10-10-10s-10 4.477-10 10c0 22.418 18.27 40.657 40.726 40.657s40.725-18.239 40.725-40.657c0-18.976-13.087-34.957-30.726-39.418v-19.78h6.793c4.848 0 8.998-3.477 9.846-8.25l12.177-68.52c.518-2.913-.281-5.905-2.181-8.172s-4.706-3.577-7.665-3.577h-18.97v-112.207h8.294c11.39 0 16.55-2.487 23.006-11.088l27.971-37.259c6.334-8.414 4.605-15.031 3.011-18.227zm-456.424 70.223h-34.088v-82.878h34.088zm53.522-23.649h-33.522v-35.579h33.522zm207.377 389.696v21.507h-239.624v-21.507zm-68.329-48.826c13.708 0 24.86 11.118 24.86 24.783v4.043h-173.472v-28.826h39.793.012.009zm-88.629-218.156 45.184-59.401v59.401zm45.184 20v59.4l-45.184-59.4zm-55.383-39.627v-59.438h45.213zm45.212 118.69h-45.212v-59.438zm.004 20-45.216 59.46v-59.46zm10.167 19.671v59.422h-45.188zm20.22-237.799h-95.823v-82.878h95.823zm147.823 15.963c0 4.379-3.581 7.942-7.982 7.942h-71.164c-4.327 0-7.982-3.637-7.982-7.942v-19.612h87.129v19.612zm84.013 112.595-8.623 48.52h-16.827l-8.623-48.52z"/><path d="m363.018 44.434h.028c5.523 0 9.986-4.477 9.986-10s-4.491-10-10.014-10-10 4.477-10 10 4.477 10 10 10z"/></g></g></svg>