<svg width="136" height="19" viewBox="0 0 136 19" fill="none" xmlns="http://www.w3.org/2000/svg">
<path d="M6.8 1.152C8.576 1.152 10.128 1.504 11.456 2.208C12.784 2.912 13.808 3.904 14.528 5.184C15.264 6.448 15.632 7.912 15.632 9.576C15.632 11.224 15.264 12.688 14.528 13.968C13.808 15.248 12.776 16.24 11.432 16.944C10.104 17.648 8.56 18 6.8 18H0.488V1.152H6.8ZM6.536 14.448C8.088 14.448 9.296 14.024 10.16 13.176C11.024 12.328 11.456 11.128 11.456 9.576C11.456 8.024 11.024 6.816 10.16 5.952C9.296 5.088 8.088 4.656 6.536 4.656H4.592V14.448H6.536ZM17.1095 11.28C17.1095 9.904 17.3655 8.696 17.8775 7.656C18.4055 6.616 19.1175 5.816 20.0135 5.256C20.9095 4.696 21.9095 4.416 23.0135 4.416C23.9575 4.416 24.7815 4.608 25.4855 4.992C26.2055 5.376 26.7575 5.88 27.1415 6.504V4.608H31.2455V18H27.1415V16.104C26.7415 16.728 26.1815 17.232 25.4615 17.616C24.7575 18 23.9335 18.192 22.9895 18.192C21.9015 18.192 20.9095 17.912 20.0135 17.352C19.1175 16.776 18.4055 15.968 17.8775 14.928C17.3655 13.872 17.1095 12.656 17.1095 11.28ZM27.1415 11.304C27.1415 10.28 26.8535 9.472 26.2775 8.88C25.7175 8.288 25.0295 7.992 24.2135 7.992C23.3975 7.992 22.7015 8.288 22.1255 8.88C21.5655 9.456 21.2855 10.256 21.2855 11.28C21.2855 12.304 21.5655 13.12 22.1255 13.728C22.7015 14.32 23.3975 14.616 24.2135 14.616C25.0295 14.616 25.7175 14.32 26.2775 13.728C26.8535 13.136 27.1415 12.328 27.1415 11.304ZM39.6626 18.192C38.4946 18.192 37.4546 17.992 36.5426 17.592C35.6306 17.192 34.9106 16.648 34.3826 15.96C33.8546 15.256 33.5586 14.472 33.4946 13.608H37.5506C37.5986 14.072 37.8146 14.448 38.1986 14.736C38.5826 15.024 39.0546 15.168 39.6146 15.168C40.1266 15.168 40.5186 15.072 40.7906 14.88C41.0786 14.672 41.2226 14.408 41.2226 14.088C41.2226 13.704 41.0226 13.424 40.6226 13.248C40.2226 13.056 39.5746 12.848 38.6786 12.624C37.7186 12.4 36.9186 12.168 36.2786 11.928C35.6386 11.672 35.0866 11.28 34.6226 10.752C34.1586 10.208 33.9266 9.48 33.9266 8.568C33.9266 7.8 34.1346 7.104 34.5506 6.48C34.9826 5.84 35.6066 5.336 36.4226 4.968C37.2546 4.6 38.2386 4.416 39.3746 4.416C41.0546 4.416 42.3746 4.832 43.3346 5.664C44.3106 6.496 44.8706 7.6 45.0146 8.976H41.2226C41.1586 8.512 40.9506 8.144 40.5986 7.872C40.2626 7.6 39.8146 7.464 39.2546 7.464C38.7746 7.464 38.4066 7.56 38.1506 7.752C37.8946 7.928 37.7666 8.176 37.7666 8.496C37.7666 8.88 37.9666 9.168 38.3666 9.36C38.7826 9.552 39.4226 9.744 40.2866 9.936C41.2786 10.192 42.0866 10.448 42.7106 10.704C43.3346 10.944 43.8786 11.344 44.3426 11.904C44.8226 12.448 45.0706 13.184 45.0866 14.112C45.0866 14.896 44.8626 15.6 44.4146 16.224C43.9826 16.832 43.3506 17.312 42.5186 17.664C41.7026 18.016 40.7506 18.192 39.6626 18.192ZM55.8294 4.464C57.3654 4.464 58.5974 4.976 59.5254 6C60.4534 7.008 60.9174 8.4 60.9174 10.176V18H56.8374V10.728C56.8374 9.832 56.6054 9.136 56.1414 8.64C55.6774 8.144 55.0534 7.896 54.2694 7.896C53.4854 7.896 52.8614 8.144 52.3974 8.64C51.9334 9.136 51.7014 9.832 51.7014 10.728V18H47.5974V0.24H51.7014V6.408C52.1174 5.816 52.6854 5.344 53.4054 4.992C54.1254 4.64 54.9334 4.464 55.8294 4.464ZM67.8733 6.504C68.2573 5.88 68.8093 5.376 69.5293 4.992C70.2493 4.608 71.0733 4.416 72.0013 4.416C73.1053 4.416 74.1053 4.696 75.0013 5.256C75.8973 5.816 76.6013 6.616 77.1133 7.656C77.6413 8.696 77.9053 9.904 77.9053 11.28C77.9053 12.656 77.6413 13.872 77.1133 14.928C76.6013 15.968 75.8973 16.776 75.0013 17.352C74.1053 17.912 73.1053 18.192 72.0013 18.192C71.0573 18.192 70.2333 18.008 69.5293 17.64C68.8253 17.256 68.2733 16.752 67.8733 16.128V18H63.7693V0.24H67.8733V6.504ZM73.7293 11.28C73.7293 10.256 73.4413 9.456 72.8653 8.88C72.3053 8.288 71.6093 7.992 70.7773 7.992C69.9613 7.992 69.2653 8.288 68.6893 8.88C68.1293 9.472 67.8493 10.28 67.8493 11.304C67.8493 12.328 68.1293 13.136 68.6893 13.728C69.2653 14.32 69.9613 14.616 70.7773 14.616C71.5933 14.616 72.2893 14.32 72.8653 13.728C73.4413 13.12 73.7293 12.304 73.7293 11.28ZM86.1543 18.192C84.8423 18.192 83.6583 17.912 82.6023 17.352C81.5623 16.792 80.7383 15.992 80.1303 14.952C79.5383 13.912 79.2423 12.696 79.2423 11.304C79.2423 9.928 79.5463 8.72 80.1543 7.68C80.7623 6.624 81.5943 5.816 82.6503 5.256C83.7063 4.696 84.8903 4.416 86.2023 4.416C87.5143 4.416 88.6983 4.696 89.7543 5.256C90.8103 5.816 91.6423 6.624 92.2503 7.68C92.8583 8.72 93.1623 9.928 93.1623 11.304C93.1623 12.68 92.8503 13.896 92.2263 14.952C91.6183 15.992 90.7783 16.792 89.7063 17.352C88.6503 17.912 87.4663 18.192 86.1543 18.192ZM86.1543 14.64C86.9383 14.64 87.6023 14.352 88.1463 13.776C88.7063 13.2 88.9863 12.376 88.9863 11.304C88.9863 10.232 88.7143 9.408 88.1703 8.832C87.6423 8.256 86.9863 7.968 86.2023 7.968C85.4023 7.968 84.7383 8.256 84.2103 8.832C83.6823 9.392 83.4183 10.216 83.4183 11.304C83.4183 12.376 83.6743 13.2 84.1863 13.776C84.7143 14.352 85.3703 14.64 86.1543 14.64ZM94.5236 11.28C94.5236 9.904 94.7796 8.696 95.2916 7.656C95.8196 6.616 96.5316 5.816 97.4276 5.256C98.3236 4.696 99.3236 4.416 100.428 4.416C101.372 4.416 102.196 4.608 102.9 4.992C103.62 5.376 104.172 5.88 104.556 6.504V4.608H108.66V18H104.556V16.104C104.156 16.728 103.596 17.232 102.876 17.616C102.172 18 101.348 18.192 100.404 18.192C99.3156 18.192 98.3236 17.912 97.4276 17.352C96.5316 16.776 95.8196 15.968 95.2916 14.928C94.7796 13.872 94.5236 12.656 94.5236 11.28ZM104.556 11.304C104.556 10.28 104.268 9.472 103.692 8.88C103.132 8.288 102.444 7.992 101.628 7.992C100.812 7.992 100.116 8.288 99.5396 8.88C98.9796 9.456 98.6996 10.256 98.6996 11.28C98.6996 12.304 98.9796 13.12 99.5396 13.728C100.116 14.32 100.812 14.616 101.628 14.616C102.444 14.616 103.132 14.32 103.692 13.728C104.268 13.136 104.556 12.328 104.556 11.304ZM115.733 6.84C116.213 6.104 116.813 5.528 117.533 5.112C118.253 4.68 119.053 4.464 119.933 4.464V8.808H118.805C117.781 8.808 117.013 9.032 116.501 9.48C115.989 9.912 115.733 10.68 115.733 11.784V18H111.629V4.608H115.733V6.84ZM121.078 11.28C121.078 9.904 121.334 8.696 121.846 7.656C122.374 6.616 123.086 5.816 123.982 5.256C124.878 4.696 125.878 4.416 126.982 4.416C127.862 4.416 128.662 4.6 129.382 4.968C130.118 5.336 130.694 5.832 131.11 6.456V0.24H135.214V18H131.11V16.08C130.726 16.72 130.174 17.232 129.454 17.616C128.75 18 127.926 18.192 126.982 18.192C125.878 18.192 124.878 17.912 123.982 17.352C123.086 16.776 122.374 15.968 121.846 14.928C121.334 13.872 121.078 12.656 121.078 11.28ZM131.11 11.304C131.11 10.28 130.822 9.472 130.246 8.88C129.686 8.288 128.998 7.992 128.182 7.992C127.366 7.992 126.67 8.288 126.094 8.88C125.534 9.456 125.254 10.256 125.254 11.28C125.254 12.304 125.534 13.12 126.094 13.728C126.67 14.32 127.366 14.616 128.182 14.616C128.998 14.616 129.686 14.32 130.246 13.728C130.822 13.136 131.11 12.328 131.11 11.304Z" fill="url(#paint0_linear)"/>
<defs>
<linearGradient id="paint0_linear" x1="-1" y1="-8" x2="105.163" y2="65.9968" gradientUnits="userSpaceOnUse">
<stop stop-color="#8D57FF"/>
<stop offset="1" stop-color="#FF00F5"/>
</linearGradient>
</defs>
</svg>
