<svg width="50" height="36" viewBox="0 0 50 36" fill="none" xmlns="http://www.w3.org/2000/svg">
<path d="M5.70138 12.44V15.848H11.1974V19.016H5.70138V22.712H11.9174V26H1.59738V9.152H11.9174V12.44H5.70138ZM33.6618 9.152V26H29.5578V15.896L25.7898 26H22.4778L18.6858 15.872V26H14.5818V9.152H19.4297L24.1578 20.816L28.8378 9.152H33.6618ZM42.709 26.168C41.477 26.168 40.373 25.968 39.397 25.568C38.421 25.168 37.637 24.576 37.045 23.792C36.469 23.008 36.165 22.064 36.133 20.96H40.501C40.565 21.584 40.781 22.064 41.149 22.4C41.517 22.72 41.997 22.88 42.589 22.88C43.197 22.88 43.677 22.744 44.029 22.472C44.381 22.184 44.557 21.792 44.557 21.296C44.557 20.88 44.413 20.536 44.125 20.264C43.853 19.992 43.509 19.768 43.093 19.592C42.693 19.416 42.117 19.216 41.365 18.992C40.277 18.656 39.389 18.32 38.701 17.984C38.013 17.648 37.421 17.152 36.925 16.496C36.429 15.84 36.181 14.984 36.181 13.928C36.181 12.36 36.749 11.136 37.885 10.256C39.021 9.36 40.501 8.912 42.325 8.912C44.181 8.912 45.677 9.36 46.813 10.256C47.949 11.136 48.557 12.368 48.637 13.952H44.197C44.165 13.408 43.965 12.984 43.597 12.68C43.229 12.36 42.757 12.2 42.181 12.2C41.685 12.2 41.285 12.336 40.981 12.608C40.677 12.864 40.525 13.24 40.525 13.736C40.525 14.28 40.781 14.704 41.293 15.008C41.805 15.312 42.605 15.64 43.693 15.992C44.781 16.36 45.661 16.712 46.333 17.048C47.021 17.384 47.613 17.872 48.109 18.512C48.605 19.152 48.853 19.976 48.853 20.984C48.853 21.944 48.605 22.816 48.109 23.6C47.629 24.384 46.925 25.008 45.997 25.472C45.069 25.936 43.973 26.168 42.709 26.168Z" fill="#28D31A"/>
</svg>
