<svg width="46" height="46" viewBox="0 0 46 46" fill="none" xmlns="http://www.w3.org/2000/svg">
<rect width="46" height="46" rx="10" fill="#80F4ED"/>
<g clip-path="url(#clip0)">
<path d="M16.7415 35.516C18.124 35.516 19.2447 34.3952 19.2447 33.0128C19.2447 31.6303 18.124 30.5095 16.7415 30.5095C15.359 30.5095 14.2383 31.6303 14.2383 33.0128C14.2383 34.3952 15.359 35.516 16.7415 35.516Z" fill="#D8D6D6"/>
<path d="M30.5093 35.516C31.8918 35.516 33.0126 34.3952 33.0126 33.0128C33.0126 31.6303 31.8918 30.5095 30.5093 30.5095C29.1268 30.5095 28.0061 31.6303 28.0061 33.0128C28.0061 34.3952 29.1268 35.516 30.5093 35.516Z" fill="#D8D6D6"/>
<path d="M12.3611 15.4902H36.7672L34.2638 25.5033L13.1895 26.7418L12.3611 15.4902Z" fill="#FFFFFF"/>
<path d="M36.7674 14.2579H13.3111L12.9624 10.3736C12.9054 9.73843 12.373 9.25171 11.7353 9.25171H9.23205C8.55161 9.25171 8 9.80332 8 10.4838C8 11.1642 8.55161 11.7158 9.23205 11.7158H10.6089C11.3613 20.0986 9.41668 -1.56774 12.0259 27.503C12.1265 28.6408 12.7413 29.8755 13.8004 30.7145C11.8909 33.153 13.6356 36.7479 16.7417 36.7479C19.3197 36.7479 21.1381 34.1767 20.254 31.7415H26.9972C26.1142 34.1736 27.9286 36.7479 30.5094 36.7479C32.5691 36.7479 34.2447 35.0723 34.2447 33.0127C34.2447 30.953 32.5691 29.2774 30.5094 29.2774H16.75C15.8141 29.2774 14.9986 28.7128 14.6466 27.8901L34.3364 26.7329C34.8739 26.7013 35.3287 26.3242 35.4593 25.8018L37.9627 15.7888C38.1568 15.0124 37.5691 14.2579 36.7674 14.2579V14.2579ZM16.7417 34.2838C16.0408 34.2838 15.4706 33.7136 15.4706 33.0127C15.4706 32.3117 16.0408 31.7415 16.7417 31.7415C17.4426 31.7415 18.0129 32.3117 18.0129 33.0127C18.0129 33.7136 17.4426 34.2838 16.7417 34.2838ZM30.5094 34.2838C29.8085 34.2838 29.2382 33.7136 29.2382 33.0127C29.2382 32.3117 29.8085 31.7415 30.5094 31.7415C31.2103 31.7415 31.7806 32.3117 31.7806 33.0127C31.7806 33.7136 31.2103 34.2838 30.5094 34.2838ZM33.2883 24.3262L14.3149 25.4412L13.5323 16.722H35.1895L33.2883 24.3262Z" fill="black"/>
</g>
<defs>
<clipPath id="clip0">
<rect width="30" height="30" fill="white" transform="translate(8 8)"/>
</clipPath>
</defs>
</svg>
