<svg width="51" height="36" viewBox="0 0 51 36" fill="none" xmlns="http://www.w3.org/2000/svg">
<path d="M12.672 14.48C12.368 13.92 11.928 13.496 11.352 13.208C10.792 12.904 10.128 12.752 9.36 12.752C8.032 12.752 6.968 13.192 6.168 14.072C5.368 14.936 4.968 16.096 4.968 17.552C4.968 19.104 5.384 20.32 6.216 21.2C7.064 22.064 8.224 22.496 9.696 22.496C10.704 22.496 11.552 22.24 12.24 21.728C12.944 21.216 13.456 20.48 13.776 19.52H8.568V16.496H17.496V20.312C17.192 21.336 16.672 22.288 15.936 23.168C15.216 24.048 14.296 24.76 13.176 25.304C12.056 25.848 10.792 26.12 9.384 26.12C7.72 26.12 6.232 25.76 4.92 25.04C3.624 24.304 2.608 23.288 1.872 21.992C1.152 20.696 0.792 19.216 0.792 17.552C0.792 15.888 1.152 14.408 1.872 13.112C2.608 11.8 3.624 10.784 4.92 10.064C6.216 9.328 7.696 8.96 9.36 8.96C11.376 8.96 13.072 9.448 14.448 10.424C15.84 11.4 16.76 12.752 17.208 14.48H12.672ZM30.2573 23.024H23.9693L22.9613 26H18.6653L24.7613 9.152H29.5133L35.6093 26H31.2653L30.2573 23.024ZM29.2013 19.856L27.1133 13.688L25.0493 19.856H29.2013ZM43.5606 26.168C42.3286 26.168 41.2246 25.968 40.2486 25.568C39.2726 25.168 38.4886 24.576 37.8966 23.792C37.3206 23.008 37.0166 22.064 36.9846 20.96H41.3526C41.4166 21.584 41.6326 22.064 42.0006 22.4C42.3686 22.72 42.8486 22.88 43.4406 22.88C44.0486 22.88 44.5286 22.744 44.8806 22.472C45.2326 22.184 45.4086 21.792 45.4086 21.296C45.4086 20.88 45.2646 20.536 44.9766 20.264C44.7046 19.992 44.3606 19.768 43.9446 19.592C43.5446 19.416 42.9686 19.216 42.2166 18.992C41.1286 18.656 40.2406 18.32 39.5526 17.984C38.8646 17.648 38.2726 17.152 37.7766 16.496C37.2806 15.84 37.0326 14.984 37.0326 13.928C37.0326 12.36 37.6006 11.136 38.7366 10.256C39.8726 9.36 41.3526 8.912 43.1766 8.912C45.0326 8.912 46.5286 9.36 47.6646 10.256C48.8006 11.136 49.4086 12.368 49.4886 13.952H45.0486C45.0166 13.408 44.8166 12.984 44.4486 12.68C44.0806 12.36 43.6086 12.2 43.0326 12.2C42.5366 12.2 42.1366 12.336 41.8326 12.608C41.5286 12.864 41.3766 13.24 41.3766 13.736C41.3766 14.28 41.6326 14.704 42.1446 15.008C42.6566 15.312 43.4566 15.64 44.5446 15.992C45.6326 16.36 46.5126 16.712 47.1846 17.048C47.8726 17.384 48.4646 17.872 48.9606 18.512C49.4566 19.152 49.7046 19.976 49.7046 20.984C49.7046 21.944 49.4566 22.816 48.9606 23.6C48.4806 24.384 47.7766 25.008 46.8486 25.472C45.9206 25.936 44.8246 26.168 43.5606 26.168Z" fill="url(#paint0_linear)"/>
<defs>
<linearGradient id="paint0_linear" x1="0" y1="0" x2="54.6676" y2="14.0819" gradientUnits="userSpaceOnUse">
<stop stop-color="#FF7557"/>
<stop offset="1" stop-color="#FFA800"/>
</linearGradient>
</defs>
</svg>
