<svg width="14" height="14" viewBox="0 0 14 14" fill="none" xmlns="http://www.w3.org/2000/svg">
<path d="M0 2C0 0.895431 0.895431 0 2 0H3.5V3.5H0V2Z" fill="#AAAAAA"/>
<path d="M0 5.25H3.5V8.75H0V5.25Z" fill="#AAAAAA"/>
<path d="M5.25 5.25H8.75V8.75H5.25V5.25Z" fill="#AAAAAA"/>
<path d="M10.5 5.25H14V8.75H10.5V5.25Z" fill="#AAAAAA"/>
<path d="M0 10.5H3.5V14H2C0.895431 14 0 13.1046 0 12V10.5Z" fill="#AAAAAA"/>
<path d="M5.25 10.5H8.75V14H5.25V10.5Z" fill="#AAAAAA"/>
<path d="M10.5 10.5H14V12C14 13.1046 13.1046 14 12 14H10.5V10.5Z" fill="#AAAAAA"/>
<rect x="5.25" width="3.5" height="3.5" fill="#AAAAAA"/>
<path d="M10.5 0H12C13.1046 0 14 0.895431 14 2V3.5H10.5V0Z" fill="#AAAAAA"/>
</svg>
