<svg width="59" height="36" viewBox="0 0 59 36" fill="none" xmlns="http://www.w3.org/2000/svg">
<path d="M5.592 9.152V26H1.488V9.152H5.592ZM27.6461 9.152V26H23.5421V15.896L19.7741 26H16.4621L12.6701 15.872V26H8.56613V9.152H13.4141L18.1421 20.816L22.8221 9.152H27.6461ZM43.4374 14.576C43.4374 15.552 43.2134 16.448 42.7654 17.264C42.3174 18.064 41.6294 18.712 40.7014 19.208C39.7734 19.704 38.6214 19.952 37.2454 19.952H34.7014V26H30.5974V9.152H37.2454C38.5894 9.152 39.7254 9.384 40.6534 9.848C41.5814 10.312 42.2774 10.952 42.7414 11.768C43.2054 12.584 43.4374 13.52 43.4374 14.576ZM36.9334 16.688C37.7174 16.688 38.3014 16.504 38.6854 16.136C39.0694 15.768 39.2614 15.248 39.2614 14.576C39.2614 13.904 39.0694 13.384 38.6854 13.016C38.3014 12.648 37.7174 12.464 36.9334 12.464H34.7014V16.688H36.9334ZM51.6699 26.168C50.4379 26.168 49.3339 25.968 48.3579 25.568C47.3819 25.168 46.5979 24.576 46.0059 23.792C45.4299 23.008 45.1259 22.064 45.0939 20.96H49.4619C49.5259 21.584 49.7419 22.064 50.1099 22.4C50.4779 22.72 50.9579 22.88 51.5499 22.88C52.1579 22.88 52.6379 22.744 52.9899 22.472C53.3419 22.184 53.5179 21.792 53.5179 21.296C53.5179 20.88 53.3739 20.536 53.0859 20.264C52.8139 19.992 52.4699 19.768 52.0539 19.592C51.6539 19.416 51.0779 19.216 50.3259 18.992C49.2379 18.656 48.3499 18.32 47.6619 17.984C46.9739 17.648 46.3819 17.152 45.8859 16.496C45.3899 15.84 45.1419 14.984 45.1419 13.928C45.1419 12.36 45.7099 11.136 46.8459 10.256C47.9819 9.36 49.4619 8.912 51.2859 8.912C53.1419 8.912 54.6379 9.36 55.7739 10.256C56.9099 11.136 57.5179 12.368 57.5979 13.952H53.1579C53.1259 13.408 52.9259 12.984 52.5579 12.68C52.1899 12.36 51.7179 12.2 51.1419 12.2C50.6459 12.2 50.2459 12.336 49.9419 12.608C49.6379 12.864 49.4859 13.24 49.4859 13.736C49.4859 14.28 49.7419 14.704 50.2539 15.008C50.7659 15.312 51.5659 15.64 52.6539 15.992C53.7419 16.36 54.6219 16.712 55.2939 17.048C55.9819 17.384 56.5739 17.872 57.0699 18.512C57.5659 19.152 57.8139 19.976 57.8139 20.984C57.8139 21.944 57.5659 22.816 57.0699 23.6C56.5899 24.384 55.8859 25.008 54.9579 25.472C54.0299 25.936 52.9339 26.168 51.6699 26.168Z" fill="url(#paint0_linear)"/>
<defs>
<linearGradient id="paint0_linear" x1="0" y1="0" x2="61.9389" y2="18.4577" gradientUnits="userSpaceOnUse">
<stop stop-color="#57FFF5"/>
<stop offset="1" stop-color="#0094FF"/>
</linearGradient>
</defs>
</svg>
