<svg width="16" height="16" viewBox="0 0 16 16" fill="none" xmlns="http://www.w3.org/2000/svg">
<rect width="16" height="16" rx="3" fill="black"/>
<path d="M7.76 4.86C8.43333 4.86 8.96 5.00333 9.34 5.29C9.72 5.57 9.97 5.96667 10.09 6.48H10.62V7.17H10.18C10.1867 7.21 10.19 7.25 10.19 7.29C10.19 7.32333 10.19 7.35667 10.19 7.39C10.19 7.45667 10.1867 7.52333 10.18 7.59C10.18 7.65 10.1767 7.70667 10.17 7.76H10.62V8.45H10.03C9.87667 8.91667 9.58667 9.30667 9.16 9.62C8.74 9.92667 8.13667 10.08 7.35 10.08H7.16V12H5.67V8.45H5.1V7.76H5.67V7.17H5.1V6.48H5.67V4.86H7.76ZM7.69 6.06H7.16V6.48H8.53C8.37667 6.2 8.09667 6.06 7.69 6.06ZM8.69 7.17H7.16V7.76H8.69C8.69667 7.70667 8.7 7.65667 8.7 7.61C8.7 7.55667 8.7 7.5 8.7 7.44C8.7 7.39333 8.7 7.35 8.7 7.31C8.7 7.26333 8.69667 7.21667 8.69 7.17ZM8.47 8.45H7.16V8.88H7.32C7.59333 8.88 7.82667 8.84667 8.02 8.78C8.21333 8.71333 8.36333 8.60333 8.47 8.45Z" fill="white"/>
</svg>
