<svg width="50" height="36" viewBox="0 0 50 36" fill="none" xmlns="http://www.w3.org/2000/svg">
<path d="M17.4686 14.576C17.4686 15.552 17.2446 16.448 16.7966 17.264C16.3486 18.064 15.6606 18.712 14.7326 19.208C13.8046 19.704 12.6526 19.952 11.2766 19.952H8.73263V26H4.62863V9.152H11.2766C12.6206 9.152 13.7566 9.384 14.6846 9.848C15.6126 10.312 16.3086 10.952 16.7726 11.768C17.2366 12.584 17.4686 13.52 17.4686 14.576ZM10.9646 16.688C11.7486 16.688 12.3326 16.504 12.7166 16.136C13.1006 15.768 13.2926 15.248 13.2926 14.576C13.2926 13.904 13.1006 13.384 12.7166 13.016C12.3326 12.648 11.7486 12.464 10.9646 12.464H8.73263V16.688H10.9646ZM32.4452 14.576C32.4452 15.552 32.2212 16.448 31.7732 17.264C31.3252 18.064 30.6372 18.712 29.7092 19.208C28.7812 19.704 27.6292 19.952 26.2532 19.952H23.7092V26H19.6052V9.152H26.2532C27.5972 9.152 28.7332 9.384 29.6612 9.848C30.5892 10.312 31.2852 10.952 31.7492 11.768C32.2132 12.584 32.4452 13.52 32.4452 14.576ZM25.9412 16.688C26.7252 16.688 27.3092 16.504 27.6932 16.136C28.0772 15.768 28.2692 15.248 28.2692 14.576C28.2692 13.904 28.0772 13.384 27.6932 13.016C27.3092 12.648 26.7252 12.464 25.9412 12.464H23.7092V16.688H25.9412ZM40.6778 26.168C39.4458 26.168 38.3418 25.968 37.3658 25.568C36.3898 25.168 35.6058 24.576 35.0138 23.792C34.4378 23.008 34.1338 22.064 34.1018 20.96H38.4698C38.5338 21.584 38.7498 22.064 39.1178 22.4C39.4858 22.72 39.9658 22.88 40.5578 22.88C41.1658 22.88 41.6458 22.744 41.9978 22.472C42.3498 22.184 42.5258 21.792 42.5258 21.296C42.5258 20.88 42.3818 20.536 42.0938 20.264C41.8218 19.992 41.4778 19.768 41.0618 19.592C40.6618 19.416 40.0858 19.216 39.3338 18.992C38.2458 18.656 37.3578 18.32 36.6698 17.984C35.9818 17.648 35.3898 17.152 34.8938 16.496C34.3978 15.84 34.1498 14.984 34.1498 13.928C34.1498 12.36 34.7178 11.136 35.8538 10.256C36.9898 9.36 38.4698 8.912 40.2938 8.912C42.1498 8.912 43.6458 9.36 44.7818 10.256C45.9178 11.136 46.5258 12.368 46.6058 13.952H42.1658C42.1338 13.408 41.9338 12.984 41.5658 12.68C41.1978 12.36 40.7258 12.2 40.1497 12.2C39.6538 12.2 39.2538 12.336 38.9498 12.608C38.6458 12.864 38.4938 13.24 38.4938 13.736C38.4938 14.28 38.7498 14.704 39.2617 15.008C39.7738 15.312 40.5738 15.64 41.6618 15.992C42.7498 16.36 43.6298 16.712 44.3018 17.048C44.9898 17.384 45.5818 17.872 46.0778 18.512C46.5738 19.152 46.8218 19.976 46.8218 20.984C46.8218 21.944 46.5738 22.816 46.0778 23.6C45.5978 24.384 44.8938 25.008 43.9658 25.472C43.0378 25.936 41.9418 26.168 40.6778 26.168Z" fill="#D9177F"/>
</svg>
