<svg width="46" height="46" viewBox="0 0 46 46" fill="none" xmlns="http://www.w3.org/2000/svg">
<rect width="46" height="46" rx="10" fill="#9483FF"/>
<g clip-path="url(#clip0)">
<path d="M36.768 12.9939V26.2746C32.4062 28.9034 27.1815 30.1571 23.0009 30.7525C18.3312 31.4178 15.9177 31.2805 9.23389 31.2805V17.0447C9.23389 16.2668 9.86454 15.6368 10.6419 15.6368C17.0517 15.6368 16.1412 15.6415 16.4498 15.6368C19.2522 15.5945 27.686 15.168 34.7487 11.7255C35.6815 11.2709 36.768 11.9561 36.768 12.9939V12.9939Z" fill="#ACEBDA"/>
<path d="M36.768 26.2744V30.4655C36.768 30.9853 36.4811 31.461 36.0241 31.7074C32.523 33.5988 28.1905 34.3251 24.2523 34.4096C14.6605 34.6149 9.23389 31.2803 9.23389 31.2803C15.9177 31.2803 18.3312 31.4176 23.0009 30.7524C27.1815 30.1569 32.4062 28.9032 36.768 26.2744Z" fill="#7BE3D4"/>
<path d="M23.0009 26.2747C24.7289 26.2747 26.1297 24.8739 26.1297 23.1459C26.1297 21.4179 24.7289 20.0171 23.0009 20.0171C21.2729 20.0171 19.8721 21.4179 19.8721 23.1459C19.8721 24.8739 21.2729 26.2747 23.0009 26.2747Z" fill="#FDFEFD"/>
<path d="M34.2092 10.6179C27.3044 13.9834 18.8735 14.3673 16.4396 14.4046C8.09467 14.4046 11.4745 14.4046 10.6419 14.4046C9.1862 14.4046 8.00192 15.5889 8.00192 17.0445C8.00192 32.2349 7.98849 31.3541 8.03266 31.5512C8.10611 31.8775 8.30915 32.1585 8.58893 32.3304C8.81608 32.4699 14.1031 35.6509 23.3982 35.6509C27.8805 35.6509 32.7117 34.8971 36.6096 32.7917C37.4672 32.3285 38 31.4373 38 30.4658C38 30.1432 38 13.2272 38 12.9935C38 11.0402 35.9554 9.76667 34.2092 10.6179V10.6179ZM10.4659 17.0445C10.4659 16.9475 10.5448 16.8686 10.6419 16.8686C13.4358 16.8686 14.8379 16.8694 15.5571 16.8701C21.8315 16.9695 29.6886 15.5624 35.2888 12.8327C35.4029 12.7774 35.536 12.8632 35.536 12.9936V25.5665C32.1706 27.4582 27.7953 28.8255 22.8273 29.533C18.4316 30.1589 15.9192 30.0624 10.4659 30.0502V17.0445ZM35.4386 30.6238C30.1718 33.4686 22.3692 33.7023 16.4924 32.511C18.6533 32.4362 20.1215 32.4071 23.1747 31.9724C27.9473 31.2925 32.0941 30.0784 35.536 28.356V30.4658C35.536 30.5308 35.4987 30.5914 35.4386 30.6238V30.6238Z" fill="black"/>
<path d="M23.0012 27.5067C25.4058 27.5067 27.362 25.5505 27.362 23.1459C27.362 20.7414 25.4057 18.7852 23.0012 18.7852C20.5966 18.7852 18.6404 20.7414 18.6404 23.1459C18.6403 25.5505 20.5966 27.5067 23.0012 27.5067V27.5067ZM23.0012 21.2491C24.0471 21.2491 24.898 22.1 24.898 23.1459C24.898 24.1919 24.0471 25.0428 23.0012 25.0428C21.9553 25.0428 21.1043 24.1918 21.1043 23.1459C21.1043 22.1001 21.9552 21.2491 23.0012 21.2491V21.2491Z" fill="black"/>
<path d="M31.1357 18.7464C31.4045 18.7464 31.3434 18.7435 33.4027 18.0571C34.0482 17.8419 34.3971 17.1442 34.1819 16.4987C33.9668 15.8532 33.2691 15.5044 32.6236 15.7195L30.7463 16.3453C30.1008 16.5605 29.752 17.2582 29.9671 17.9037C30.1392 18.4199 30.6198 18.7464 31.1357 18.7464Z" fill="black"/>
<path d="M12.9888 28.7582H14.8661C15.5465 28.7582 16.0981 28.2066 16.0981 27.5262C16.0981 26.8458 15.5465 26.2942 14.8661 26.2942H12.9888C12.3084 26.2942 11.7568 26.8458 11.7568 27.5262C11.7568 28.2066 12.3084 28.7582 12.9888 28.7582Z" fill="black"/>
</g>
<defs>
<clipPath id="clip0">
<rect width="30" height="30" fill="white" transform="translate(8 8)"/>
</clipPath>
</defs>
</svg>
