<svg width="46" height="46" viewBox="0 0 46 46" fill="none" xmlns="http://www.w3.org/2000/svg">
<rect width="46" height="46" rx="10" fill="#FFE601"/>
<path d="M15.6172 8.9375H30.3828C32.0008 8.9375 33.3125 10.2492 33.3125 11.8672V34.1328C33.3125 35.7508 32.0008 37.0625 30.3828 37.0625H15.6172C13.9992 37.0625 12.6875 35.7508 12.6875 34.1328V11.8672C12.6875 10.2492 13.9992 8.9375 15.6172 8.9375Z" fill="#F8E9D2"/>
<path d="M18.1953 18.7812H27.8047C28.7755 18.7812 29.5625 19.5682 29.5625 20.5391V22.6484C29.5625 23.6193 28.7755 24.4062 27.8047 24.4062H18.1953C17.2245 24.4062 16.4375 23.6193 16.4375 22.6484V20.5391C16.4375 19.5682 17.2245 18.7812 18.1953 18.7812Z" fill="#E2E0E0"/>
<path d="M19.25 8.9375V10.3438C19.25 12.4148 20.9289 14.0938 23 14.0938C25.0711 14.0938 26.75 12.4148 26.75 10.3438V8.9375H19.25Z" fill="#F79CAF"/>
<path d="M33.3125 11.8672V34.1328C33.3125 35.7506 32.0006 37.0625 30.3828 37.0625H28.0391C29.6568 37.0625 30.9688 35.7506 30.9688 34.1328V11.8672C30.9688 10.2494 29.6568 8.9375 28.0391 8.9375H30.3828C32.0006 8.9375 33.3125 10.2494 33.3125 11.8672Z" fill="#E4D5C1"/>
<path d="M29.5625 20.5391V22.6484C29.5625 23.6193 28.7756 24.4062 27.8047 24.4062H25.4609C26.4318 24.4062 27.2188 23.6193 27.2188 22.6484V20.5391C27.2188 19.5682 26.4318 18.7812 25.4609 18.7812H27.8047C28.7756 18.7812 29.5625 19.5682 29.5625 20.5391Z" fill="#CECCCC"/>
<path d="M26.75 8.9375V10.3438C26.75 12.415 25.0713 14.0938 23 14.0938C22.5904 14.0938 22.1967 14.0281 21.8281 13.9068C23.3252 13.4152 24.4062 12.0061 24.4062 10.3438V8.9375H26.75Z" fill="#E3889B"/>
<path d="M27.8047 25.3438H18.1953C16.7091 25.3438 15.5 24.1346 15.5 22.6484V20.5391C15.5 19.0529 16.7091 17.8438 18.1953 17.8438H27.8047C29.2909 17.8438 30.5 19.0529 30.5 20.5391V22.6484C30.5 24.1346 29.2909 25.3438 27.8047 25.3438ZM18.1953 19.7188C17.743 19.7188 17.375 20.0867 17.375 20.5391V22.6484C17.375 23.1008 17.743 23.4688 18.1953 23.4688H27.8047C28.257 23.4688 28.625 23.1008 28.625 22.6484V20.5391C28.625 20.0867 28.257 19.7188 27.8047 19.7188H18.1953Z" fill="black"/>
<path d="M18.3138 29.5625C17.796 29.5625 17.376 29.1427 17.376 28.625C17.376 28.1073 17.7954 27.6875 18.3132 27.6875H18.3138C18.8315 27.6875 19.2513 28.1073 19.2513 28.625C19.2513 29.1427 18.8315 29.5625 18.3138 29.5625Z" fill="black"/>
<path d="M23.0013 29.5625C22.4835 29.5625 22.0635 29.1427 22.0635 28.625C22.0635 28.1073 22.4829 27.6875 23.0007 27.6875H23.0013C23.519 27.6875 23.9388 28.1073 23.9388 28.625C23.9388 29.1427 23.519 29.5625 23.0013 29.5625Z" fill="black"/>
<path d="M27.6885 29.5625C27.1708 29.5625 26.7507 29.1427 26.7507 28.625C26.7507 28.1073 27.1701 27.6875 27.6879 27.6875H27.6885C28.2063 27.6875 28.626 28.1073 28.626 28.625C28.626 29.1427 28.2063 29.5625 27.6885 29.5625Z" fill="black"/>
<path d="M18.3138 33.3125C17.796 33.3125 17.376 32.8927 17.376 32.375C17.376 31.8573 17.7954 31.4375 18.3132 31.4375H18.3138C18.8315 31.4375 19.2513 31.8573 19.2513 32.375C19.2513 32.8927 18.8315 33.3125 18.3138 33.3125Z" fill="black"/>
<path d="M23.0013 33.3125C22.4835 33.3125 22.0635 32.8927 22.0635 32.375C22.0635 31.8573 22.4829 31.4375 23.0007 31.4375H23.0013C23.519 31.4375 23.9388 31.8573 23.9388 32.375C23.9388 32.8927 23.519 33.3125 23.0013 33.3125Z" fill="black"/>
<path d="M27.6885 33.3125C27.1708 33.3125 26.7507 32.8927 26.7507 32.375C26.7507 31.8573 27.1701 31.4375 27.6879 31.4375H27.6885C28.2063 31.4375 28.626 31.8573 28.626 32.375C28.626 32.8927 28.2063 33.3125 27.6885 33.3125Z" fill="black"/>
<path d="M30.3828 8H15.6172C13.4848 8 11.75 9.73479 11.75 11.8672V34.1328C11.75 36.2652 13.4848 38 15.6172 38H30.3828C32.5152 38 34.25 36.2652 34.25 34.1328V11.8672C34.25 9.73479 32.5152 8 30.3828 8ZM20.1875 9.875H25.8125V10.3438C25.8125 11.8946 24.5508 13.1562 23 13.1562C21.4492 13.1562 20.1875 11.8946 20.1875 10.3438V9.875ZM32.375 34.1328C32.375 35.2313 31.4813 36.125 30.3828 36.125H15.6172C14.5187 36.125 13.625 35.2313 13.625 34.1328V11.8672C13.625 10.7687 14.5187 9.875 15.6172 9.875H18.3125V10.3438C18.3125 12.9284 20.4153 15.0312 23 15.0312C25.5847 15.0312 27.6875 12.9284 27.6875 10.3438V9.875H30.3828C31.4813 9.875 32.375 10.7687 32.375 11.8672V34.1328Z" fill="black"/>
</svg>
